<svg xmlns="http://www.w3.org/2000/svg" width="26" height="24" viewBox="0 0 26 24" fill="none"><path d="M13.3678 19.2364L18.9498 22.7313C19.6633 23.1781 20.5492 22.5136 20.3375 21.6905L18.7247 15.4209C18.6793 15.2463 18.6847 15.0625 18.7402 14.8908C18.7958 14.7191 18.8993 14.5663 19.0388 14.4501L24.0444 10.3328C24.7021 9.79186 24.3626 8.71314 23.5176 8.65894L16.9806 8.23968C16.8045 8.22725 16.6356 8.16564 16.4936 8.06204C16.3516 7.95843 16.2423 7.81708 16.1784 7.65446L13.7404 1.5871C13.6741 1.41449 13.5563 1.26589 13.4025 1.16102C13.2488 1.05616 13.0664 1 12.8796 1C12.6927 1 12.5104 1.05616 12.3566 1.16102C12.2028 1.26589 12.085 1.41449 12.0187 1.5871L9.5807 7.65446C9.51682 7.81708 9.40751 7.95843 9.26549 8.06204C9.12348 8.16564 8.9546 8.22725 8.77852 8.23968L2.2415 8.65894C1.39647 8.71314 1.057 9.79186 1.71472 10.3328L6.72034 14.4501C6.85984 14.5663 6.96332 14.7191 7.01887 14.8908C7.07443 15.0625 7.07981 15.2463 7.0344 15.4209L5.53873 21.2353C5.28465 22.223 6.34772 23.0203 7.20395 22.4842L12.3914 19.2364C12.5373 19.1446 12.7066 19.0958 12.8796 19.0958C13.0525 19.0958 13.2219 19.1446 13.3678 19.2364V19.2364Z" stroke="#3D47F0" stroke-width="1.5" stroke-linecap="round" stroke-linejoin="round"></path></svg>